<svg xmlns="http://www.w3.org/2000/svg" width="12" height="16.004" viewBox="0 0 12 16.004">
  <g id="User" transform="translate(-656 -94.5)">
    <g id="Ellipse_4" data-name="Ellipse 4" transform="translate(659 94.5)" fill="none" stroke="#000" stroke-width="1">
      <ellipse cx="2.945" cy="3" rx="2.945" ry="3" stroke="none"/>
      <ellipse cx="2.945" cy="3" rx="2.445" ry="2.5" fill="none"/>
    </g>
    <g id="Path_34" data-name="Path 34" transform="translate(654.052 100)" fill="none">
      <path d="M7.872.84C8.976.793,9.714.2,10.6.4c3,.836,3.344,3.34,3.344,6.609,0,3.883-1.359,3.485-5.967,3.485s-6.031.4-6.031-3.485C1.95,4.08,1.76,1.571,5.129.4,5.766.168,6.738.84,7.872.84Z" stroke="none"/>
      <path d="M 5.436687469482422 1.35057258605957 C 3.041014671325684 2.192092895507813 2.939032554626465 3.637835025787354 2.948783874511719 6.559041976928711 C 2.949274063110352 6.707361698150635 2.949773788452148 6.8569016456604 2.949773788452148 7.007531642913818 C 2.949773788452148 8.221681594848633 3.103083610534668 8.929141998291016 3.418453216552734 9.170361518859863 C 3.821413993835449 9.478561401367188 4.865083694458008 9.504351615905762 5.899533271789551 9.504351615905762 C 6.179903984069824 9.504351615905762 6.481393814086914 9.501852035522461 6.800593376159668 9.499201774597168 C 7.174123764038086 9.496101379394531 7.56036376953125 9.492901802062988 7.980523586273193 9.492901802062988 C 8.401344299316406 9.492901802062988 8.787203788757324 9.496111869812012 9.160353660583496 9.499212265014648 C 9.477993011474609 9.501852035522461 9.778023719787598 9.504351615905762 10.05664348602295 9.504351615905762 C 11.07783317565918 9.504351615905762 12.10725402832031 9.479031562805176 12.49465370178223 9.176462173461914 C 12.79958343505859 8.938302040100098 12.94781398773193 8.228841781616211 12.94781398773193 7.007531642913818 C 12.94781398773193 3.689087867736816 12.56020259857178 1.994688987731934 10.36289119720459 1.369687080383301 C 10.31910514831543 1.361052513122559 10.27434349060059 1.356842041015625 10.22669410705566 1.356842041015625 C 10.01914405822754 1.356851577758789 9.755813598632813 1.437352180480957 9.450913429260254 1.530571937561035 C 9.039093017578125 1.656481742858887 8.526583671569824 1.81317138671875 7.913613796234131 1.838961601257324 L 7.892603874206543 1.839841842651367 L 7.871583461761475 1.839841842651367 C 7.187763214111328 1.839841842651367 6.584983825683594 1.658541679382324 6.100653648376465 1.512862205505371 C 5.851819038391113 1.438020706176758 5.570337295532227 1.353352546691895 5.436687469482422 1.35057258605957 M 5.430069923400879 0.3505058288574219 C 6.054092407226563 0.3505058288574219 6.903910636901855 0.8398418426513672 7.871583461761475 0.8398418426513672 C 8.816709518432617 0.8000764846801758 9.493310928344727 0.3568601608276367 10.22666549682617 0.356846809387207 C 10.35032081604004 0.3568449020385742 10.47555923461914 0.3694429397583008 10.60400390625 0.3987016677856445 C 13.60400390625 1.234372138977051 13.94781398773193 3.738461971282959 13.94781398773193 7.007531642913818 C 13.94781398773193 10.23054695129395 13.01119613647461 10.50435638427734 10.05663967132568 10.50435638427734 C 9.452085494995117 10.50435638427734 8.763347625732422 10.49290180206299 7.980523586273193 10.49290180206299 C 7.197980880737305 10.49290180206299 6.506973266601563 10.50435638427734 5.899538993835449 10.50435638427734 C 2.929614067077637 10.50435638427734 1.949773788452148 10.23078441619873 1.949773788452148 7.007531642913818 C 1.949773788452148 4.080142021179199 1.759833335876465 1.570681571960449 5.129253387451172 0.3987016677856445 C 5.222502708435059 0.364924430847168 5.322971343994141 0.3505058288574219 5.430069923400879 0.3505058288574219 Z" stroke="none"/>
    </g>
  </g>
</svg>
