<svg xmlns="http://www.w3.org/2000/svg" width="24" height="24" viewBox="0 0 159.07 159.06">
<g id="Layer_3" data-name="Layer 3">
<path class="cls-1" d="M79.53,0a79.53,79.53,0,1,0,79.54,79.53A79.62,79.62,0,0,0,79.53,0Zm22.06,47.18a1.2,1.2,0,0,1-1.2,1.2H90.83a4.25,4.25,0,0,0-4.25,4.25v10h13.6a1.2,1.2,0,0,1,1.2,1.3l-1.19,14.12a1.21,1.21,0,0,1-1.2,1.1H86.58V126a1.21,1.21,0,0,1-1.2,1.21H68.26a1.21,1.21,0,0,1-1.2-1.21V79.16H58.5A1.2,1.2,0,0,1,57.3,78V63.84a1.2,1.2,0,0,1,1.2-1.2h8.56V49A17.17,17.17,0,0,1,84.23,31.86h16.16a1.2,1.2,0,0,1,1.2,1.2Z" fill="#fff"></path>
</g>
</svg>