<svg xmlns="http://www.w3.org/2000/svg" width="24" height="24" viewBox="0 0 24 24">
  <g id="Forum" transform="translate(-1074 -1342)">
    <circle id="Ellipse_1" data-name="Ellipse 1" cx="12" cy="12" r="12" transform="translate(1074 1342)" fill="#fff"/>
    <g id="Layer_2" data-name="Layer 2" transform="translate(1080 1347)">
      <g id="Layer_3" data-name="Layer 3">
        <path id="Path_18" data-name="Path 18" d="M129.2,49.8l1.294-.743V41.77l-1.3.746V49.8Z" transform="translate(-117.841 -38.098)" fill="#0b3d65"/>
        <path id="Path_19" data-name="Path 19" d="M72.231,112.638l1.294-.743v-4.4l-1.3.746v4.4Z" transform="translate(-65.88 -98.04)" fill="#0b3d65"/>
        <path id="Path_20" data-name="Path 20" d="M100.72,66.214l1.3-.742V58.18l-1.3.746v7.288Z" transform="translate(-91.865 -53.065)" fill="#0b3d65"/>
        <path id="Path_21" data-name="Path 21" d="M64.615,3.672l-1.3.746L56.97.753,58.273,0Z" transform="translate(-51.961)" fill="#0b3d65"/>
        <path id="Path_22" data-name="Path 22" d="M36.135,20.062l-1.3.746-6.35-3.664,1.3-.753Z" transform="translate(-25.985 -14.949)" fill="#0b3d65"/>
        <path id="Path_23" data-name="Path 23" d="M7.645,36.471l-1.3.746L0,33.553,1.3,32.8Z" transform="translate(0 -29.916)" fill="#0b3d65"/>
        <path id="Path_24" data-name="Path 24" d="M.27,78.937,6.6,75.3,5.3,74.55.27,77.442Z" transform="translate(-0.246 -67.996)" fill="#0b3d65"/>
        <path id="Path_25" data-name="Path 25" d="M0,41.36l.024,4.723,1.253-.67V42.1Z" transform="translate(0 -37.724)" fill="#0b3d65"/>
        <path id="Path_26" data-name="Path 26" d="M.27,116.98,6.6,120.637v-1.493L1.523,116.26Z" transform="translate(-0.246 -106.039)" fill="#0b3d65"/>
        <path id="Path_27" data-name="Path 27" d="M28.49,24.96v.729l1.281.743V25.7Z" transform="translate(-25.985 -22.766)" fill="#0b3d65"/>
        <path id="Path_28" data-name="Path 28" d="M56.97,8.54v.73l1.282.742V9.28Z" transform="translate(-51.961 -7.789)" fill="#0b3d65"/>
        <path id="Path_29" data-name="Path 29" d="M121.566,114.753l-.736-.384V112.98l.736.367Z" transform="translate(-110.207 -103.047)" fill="#0b3d65"/>
        <path id="Path_30" data-name="Path 30" d="M93.086,131.163l-.736-.384V129.39l.736.368Z" transform="translate(-84.231 -118.014)" fill="#0b3d65"/>
      </g>
    </g>
  </g>
</svg>
