<svg xmlns="http://www.w3.org/2000/svg" width="24" height="24" viewBox="0 0 24 24">
  <path id="github-brands" d="M8.027,27.325c0,.1-.111.179-.252.179-.16.015-.271-.065-.271-.179s.111-.179.252-.179S8.027,27.211,8.027,27.325Zm-1.5-.223c-.034.1.063.213.208.243a.224.224,0,0,0,.3-.1c.029-.1-.063-.213-.208-.258a.246.246,0,0,0-.3.114Zm2.139-.084c-.14.035-.237.129-.223.243s.14.164.285.129.237-.129.223-.228S8.8,27,8.661,27.017ZM11.845,8A11.753,11.753,0,0,0,0,20.109,12.424,12.424,0,0,0,8.2,31.98c.619.114.837-.278.837-.6s-.015-2-.015-3.047c0,0-3.387.744-4.1-1.479,0,0-.552-1.444-1.345-1.816,0,0-1.108-.779.077-.764a2.544,2.544,0,0,1,1.868,1.28A2.522,2.522,0,0,0,9.053,26.59a2.786,2.786,0,0,1,.774-1.672c-2.7-.308-5.434-.71-5.434-5.484a3.811,3.811,0,0,1,1.142-2.923,4.8,4.8,0,0,1,.126-3.37C6.673,12.819,9,14.481,9,14.481a11.156,11.156,0,0,1,6.077,0s2.327-1.667,3.339-1.34a4.8,4.8,0,0,1,.126,3.37,3.9,3.9,0,0,1,1.248,2.923c0,4.789-2.85,5.171-5.555,5.484a2.975,2.975,0,0,1,.823,2.3c0,1.672-.015,3.742-.015,4.149,0,.323.223.715.837.6A12.312,12.312,0,0,0,24,20.109,12.01,12.01,0,0,0,11.845,8ZM4.7,25.116c-.063.05-.048.164.034.258s.189.114.252.05.048-.164-.034-.258S4.766,25.052,4.7,25.116Zm-.523-.4c-.034.065.015.144.111.194a.142.142,0,0,0,.208-.035c.034-.065-.015-.144-.111-.194C4.292,24.65,4.215,24.665,4.181,24.714Zm1.568,1.767c-.077.065-.048.213.063.308.111.114.252.129.315.05s.034-.213-.063-.308C5.956,26.417,5.811,26.4,5.748,26.481Zm-.552-.73c-.077.05-.077.179,0,.293s.208.164.271.114a.231.231,0,0,0,0-.308c-.068-.114-.194-.164-.271-.1Z" transform="translate(0 -8)" fill="#fff"/>
</svg>
