<svg xmlns="http://www.w3.org/2000/svg" width="24" height="24" viewBox="0 0 159.42 159.06">
  <g id="Layer_3" data-name="Layer 3">
    <path class="cls-1" d="M79.63,158.55a79,79,0,1,1,79-79A79.1,79.1,0,0,1,79.63,158.55ZM106.27,47.48a5.85,5.85,0,1,0,5.85,5.84A5.84,5.84,0,0,0,106.27,47.48ZM80.28,55a24.57,24.57,0,1,0,24.56,24.57A24.59,24.59,0,0,0,80.28,55Zm0,40.3A15.74,15.74,0,1,1,96,79.54,15.75,15.75,0,0,1,80.28,95.27Zm49.56-36.15a30,30,0,0,0-30-29.95H60.34a30,30,0,0,0-30,29.95V98.67a30,30,0,0,0,30,30H99.88a30,30,0,0,0,30-29.95Zm-9.39,39.55a20.57,20.57,0,0,1-20.57,20.57H60.34A20.58,20.58,0,0,1,39.76,98.67V59.12A20.58,20.58,0,0,1,60.34,38.55H99.88a20.57,20.57,0,0,1,20.57,20.57Z" fill="#fff"/>
  </g>
</svg>
