<svg xmlns="http://www.w3.org/2000/svg" width="24" height="24" viewBox="0 0 159.52 159.06">
  <g id="Layer_3" data-name="Layer 3">
    <g>
      <path class="cls-1" d="M88.16,70.49v-.17l-.12.17Z"></path>
      <path class="cls-1" d="M80.12.26a79.4,79.4,0,1,0,79.4,79.39A79.48,79.48,0,0,0,80.12.26ZM60.27,115.35a1.32,1.32,0,0,1-1.33,1.32H43.64a1.32,1.32,0,0,1-1.32-1.32V64a1.33,1.33,0,0,1,1.32-1.33h15.3A1.33,1.33,0,0,1,60.27,64ZM50.75,55.79a9.61,9.61,0,1,1,9.61-9.61A9.61,9.61,0,0,1,50.75,55.79ZM125,115.35a1.32,1.32,0,0,1-1.33,1.32h-15.3a1.33,1.33,0,0,1-1.33-1.32V87.78c0-7.26-2.59-12.21-9.09-12.21-5,0-7.91,3.33-9.21,6.56a12.36,12.36,0,0,0-.59,4.38v28.84a1.33,1.33,0,0,1-1.33,1.32H71.53a1.32,1.32,0,0,1-1.33-1.32c0-7.35.19-43,0-51.34a1.33,1.33,0,0,1,1.33-1.35H86.83A1.34,1.34,0,0,1,88.16,64v6.33c2.38-3.68,6.64-8.92,16.18-8.92,11.81,0,20.67,7.71,20.67,24.3Z" fill="#fff"></path>
    </g>
  </g>
</svg>