<svg xmlns="http://www.w3.org/2000/svg" viewBox="0 0 143.93 166.04"><defs><style>.cls-1{fill:#ecedee;}</style></defs><title>Asset 6</title><g id="Layer_2" data-name="Layer 2"><g id="Layer_3" data-name="Layer 3"><polygon class="cls-1" points="129.21 133.15 143.93 124.7 143.93 41.77 129.2 50.25 129.2 133.15 129.21 133.15"/><polygon class="cls-1" points="72.24 166.04 86.96 157.59 86.96 107.49 72.23 115.97 72.23 166.04 72.24 166.04"/><polygon class="cls-1" points="100.72 149.56 115.45 141.12 115.45 58.18 100.72 66.66 100.72 149.56 100.72 149.56"/><polygon class="cls-1" points="143.93 41.77 129.2 50.25 56.97 8.56 71.79 0 143.93 41.77"/><polygon class="cls-1" points="115.45 58.16 100.72 66.64 28.49 24.96 43.3 16.39 115.45 58.16"/><polygon class="cls-1" points="86.96 74.56 72.23 83.04 0 41.36 14.81 32.8 86.96 74.56"/><polygon class="cls-1" points="0.27 124.45 72.23 83.04 57.51 74.55 0.27 107.44 0.27 124.45"/><polygon class="cls-1" points="0 41.36 0.27 95.08 14.52 87.46 14.52 49.74 0 41.36"/><polygon class="cls-1" points="0.27 124.45 72.24 166.04 72.23 149.06 14.52 116.26 0.27 124.45"/><polygon class="cls-1" points="28.49 24.96 28.49 33.25 43.06 41.7 43.06 33.37 28.49 24.96"/><polygon class="cls-1" points="56.97 8.54 56.97 16.84 71.55 25.28 71.55 16.96 56.97 8.54"/><polygon class="cls-1" points="129.2 133.15 120.83 128.78 120.83 112.98 129.2 117.16 129.2 133.15"/><polygon class="cls-1" points="100.72 149.56 92.35 145.19 92.35 129.39 100.72 133.57 100.72 149.56"/></g></g></svg>