<svg xmlns="http://www.w3.org/2000/svg" width="24" height="24" viewBox="0 0 24 24">
  <path id="medium-brands" d="M0,32V56H24V32Zm19.939,5.684-1.286,1.232a.378.378,0,0,0-.145.359v9.07a.369.369,0,0,0,.145.359l1.259,1.232v.273H13.591v-.263l1.3-1.264c.129-.129.129-.166.129-.359V40.989L11.4,50.182h-.487L6.7,40.989V47.15a.847.847,0,0,0,.236.707l1.693,2.052v.273H3.814v-.273l1.693-2.052a.82.82,0,0,0,.22-.707V40.025a.612.612,0,0,0-.2-.525L4.018,37.684v-.273H8.695l3.611,7.929,3.177-7.923h4.457Z" transform="translate(0 -32)" fill="#fff"/>
</svg>
