<?xml version="1.0" encoding="iso-8859-1"?>
<!-- Generator: Adobe Illustrator 19.0.0, SVG Export Plug-In . SVG Version: 6.00 Build 0)  -->
<svg version="1.1" id="Capa_1" xmlns="http://www.w3.org/2000/svg" xmlns:xlink="http://www.w3.org/1999/xlink" x="0px" y="0px"
	 viewBox="0 0 512 512" style="enable-background:new 0 0 512 512;" xml:space="preserve">
<g>
	<g>
		<path d="M461.111,241.898V87.882C461.111,44.11,425.5,8.5,381.728,8.5c-43.772,0-79.382,35.611-79.382,79.382V343.5
			c0,25.556-20.791,46.347-46.347,46.347s-46.347-20.791-46.347-46.347V87.882c0-43.772-35.61-79.382-79.382-79.382
			c-43.772,0-79.381,35.611-79.381,79.382v154.016C21.803,248.428,0,274.443,0,305.47c0,13.871,4.418,27.304,12.542,38.42V503.5
			h105.25V343.89c8.124-11.116,12.541-24.549,12.541-38.42c0-30.513-21.083-56.184-49.444-63.238V87.882
			c0-27.23,22.153-49.382,49.383-49.382c27.23,0,49.382,22.153,49.382,49.382V343.5c0,42.098,34.249,76.347,76.347,76.347
			c42.098,0,76.347-34.249,76.347-76.347V87.882c0-27.23,22.152-49.382,49.382-49.382s49.383,22.153,49.383,49.382v154.35
			c-28.361,7.054-49.444,32.725-49.444,63.238c0,13.872,4.417,27.305,12.542,38.421V503.5H499.46V343.891
			c8.123-11.116,12.54-24.549,12.54-38.421C512,274.443,490.197,248.428,461.111,241.898z M87.792,473.5h-45.25v-115h45.25V473.5z
			 M100.333,305.47c0,8.469-3.059,16.634-8.612,23.03H38.612C33.059,322.104,30,313.939,30,305.47
			c0-19.391,15.775-35.167,35.167-35.167C84.558,270.303,100.333,286.079,100.333,305.47z M469.458,473.5h-45.249v-115h45.249V473.5
			z M473.388,328.5h-53.109c-5.552-6.395-8.612-14.56-8.612-23.03c0-19.391,15.775-35.167,35.166-35.167
			c19.392,0,35.167,15.776,35.167,35.167C482,313.94,478.94,322.105,473.388,328.5z"/>
	</g>
</g>
<g>
</g>
<g>
</g>
<g>
</g>
<g>
</g>
<g>
</g>
<g>
</g>
<g>
</g>
<g>
</g>
<g>
</g>
<g>
</g>
<g>
</g>
<g>
</g>
<g>
</g>
<g>
</g>
<g>
</g>
</svg>
