<svg xmlns="http://www.w3.org/2000/svg" width="24" height="24" viewBox="0 0 159.42 159.06">
  <g id="Layer_3" data-name="Layer 3">
    <path class="cls-1" d="M79.73,0a79.53,79.53,0,1,0,79.54,79.53A79.62,79.62,0,0,0,79.73,0Zm46.06,50.59a2.24,2.24,0,0,1-.46,1.48A36.72,36.72,0,0,1,118,59.78c-.42.31-1.13.64-1.13,1.24,0,15.32-3.91,30.62-15.07,41.72-14.23,14.12-35.56,18-54.49,12.74a51.92,51.92,0,0,1-10.54-4.22c-1.11-.6-2.21-1.23-3.28-1.94-.27-.22-.48-.43-.25-.57s.41-.13,1.26,0a37.22,37.22,0,0,0,15.76-2c2.76-1,8.68-2.9,10.38-5.5,0-.06.08-.06.12-.12-.69-.17-1.38-.17-2.06-.28-5.15-1.47-12-4.06-15.2-12.73-.21-.51,0-.77.52-.67,4.24.33,5.76.1,7.24-.22a11.57,11.57,0,0,1-2.45-.75A19.59,19.59,0,0,1,36.68,70.83a11.66,11.66,0,0,1-.12-2.18c0-.51.26-.67.71-.39a19.32,19.32,0,0,0,7.37,2.06,30.91,30.91,0,0,1-2.35-2.06c-5.62-5.33-7.8-16.16-3.3-22.9.36-.55.61-.55,1,0C50.33,57,63,62.5,78.26,64.78c.41,0,.45,0,.39-.45a20.47,20.47,0,0,1,.2-8,19.37,19.37,0,0,1,3.77-7.56A20.29,20.29,0,0,1,89,43.61a19.79,19.79,0,0,1,7.84-2.22,18.65,18.65,0,0,1,8.26,1.34,19.3,19.3,0,0,1,5.39,3.3,9.18,9.18,0,0,1,1,1,.72.72,0,0,0,.76.2A47.39,47.39,0,0,0,123.3,43a.55.55,0,0,1,.5,0c.16.12.1.32,0,.49a17,17,0,0,1-3.12,5.67c-.89,1.11-3.11,3.84-4.62,4.09a38,38,0,0,0,9.36-2.67c.38-.17.35-.25.35,0Z" fill="#fff"></path>
  </g>
</svg>