<svg xmlns="http://www.w3.org/2000/svg" width="24" height="24" viewBox="0 0 24 24">
  <path id="YouTube" d="M27.8,17.555H26.22l.007-.765a.692.692,0,0,1,.744-.618h.1a.693.693,0,0,1,.746.618Zm-5.928-1.639c-.4,0-.729.225-.729.5v3.721c0,.274.328.5.729.5s.731-.224.731-.5V16.415C22.6,16.14,22.275,15.916,21.872,15.916ZM31.5,13.834v7.078c0,1.7-1.767,3.087-3.926,3.087H11.427C9.266,24,7.5,22.611,7.5,20.913V13.834c0-1.7,1.766-3.087,3.927-3.087H27.574C29.733,10.747,31.5,12.137,31.5,13.834Zm-19,7.847V14.225h2v-1.1l-5.336-.007V14.2l1.666,0v7.477Zm6-6.346H16.835v3.982a5.884,5.884,0,0,1,0,.966c-.136.309-.746.637-.983.033a6.607,6.607,0,0,1-.005-.971l-.007-4.009h-1.66l.005,3.946c0,.6-.016,1.056.006,1.261.041.362.026.784.429,1.025a2.231,2.231,0,0,0,2.55-.711l0,.822H18.5V15.336ZM23.842,19.9l0-3.314c0-1.263-1.135-2.019-2.674-1l.007-2.464-1.667,0-.008,8.5,1.371-.017.125-.53C22.744,22.419,23.845,21.5,23.842,19.9Zm5.223-.439-1.251.006c0,.041,0,.089,0,.141v.582a.635.635,0,0,1-.684.565h-.245a.635.635,0,0,1-.684-.565v-1.53h2.865v-.9a11.836,11.836,0,0,0-.085-1.689c-.205-1.188-2.206-1.376-3.216-.768a1.631,1.631,0,0,0-.7.785,3.737,3.737,0,0,0-.213,1.4v1.976C24.848,22.746,29.636,22.281,29.065,19.456ZM22.647,8.729a1,1,0,0,0,.4.422,1.338,1.338,0,0,0,.683.158,1.214,1.214,0,0,0,.639-.166,1.347,1.347,0,0,0,.468-.5l-.032.546h1.86V2.6H25.2V7.728a.621.621,0,0,1-1.22,0V2.6H22.455V7.044c0,.566.012.944.033,1.135A1.655,1.655,0,0,0,22.647,8.729ZM17.009,5.005A4.618,4.618,0,0,1,17.2,3.522a1.673,1.673,0,0,1,.684-.855,2.253,2.253,0,0,1,1.261-.325,2.693,2.693,0,0,1,1.107.208,1.765,1.765,0,0,1,.714.541,1.958,1.958,0,0,1,.344.686A4.585,4.585,0,0,1,21.4,4.857V6.524a7.543,7.543,0,0,1-.087,1.347,1.935,1.935,0,0,1-.367.8,1.663,1.663,0,0,1-.716.548,2.677,2.677,0,0,1-1.009.177,3.31,3.31,0,0,1-1.076-.151,1.458,1.458,0,0,1-.686-.457,1.85,1.85,0,0,1-.349-.739,5.961,5.961,0,0,1-.1-1.3V5.005Zm1.457,2.619a.742.742,0,0,0,1.478,0V4.115a.742.742,0,0,0-1.478,0ZM13.318,9.4h1.755l0-5.056L17.149.009H15.229l-1.1,3.217L13.009,0h-1.9l2.206,4.342Z" transform="translate(-7.5)" fill="#fff"/>
</svg>
