<svg xmlns="http://www.w3.org/2000/svg" width="24" height="24" viewBox="0 0 160.09 159.06">
  <g id="Layer_3" data-name="Layer 3">
    <g>
      <path class="cls-1" d="M73.13,66.53c-.92-.53-1.77.14-1.77,1.19V91.51c0,1,.83,1.71,1.75,1.21L94.23,81.13a1.38,1.38,0,0,0,.17-2.4Z" fill="#fff"></path>
      <path class="cls-1" d="M80,0a79.53,79.53,0,1,0,79.54,79.53A79.62,79.62,0,0,0,80,0Zm47.62,92.3a20.42,20.42,0,0,1-20.42,20.42h-53A20.43,20.43,0,0,1,33.83,92.3V67.47A20.43,20.43,0,0,1,54.26,47.05h53a20.42,20.42,0,0,1,20.42,20.42Z" fill="#fff"></path>
    </g>
  </g>
</svg>
